<?xml version="1.0" standalone="no"?>
<!DOCTYPE svg PUBLIC "-//W3C//DTD SVG 20010904//EN"
 "http://www.w3.org/TR/2001/REC-SVG-20010904/DTD/svg10.dtd">
<svg version="1.0" xmlns="http://www.w3.org/2000/svg"
 width="700.000000pt" height="700.000000pt" viewBox="0 0 700.000000 700.000000"
 preserveAspectRatio="xMidYMid meet">
<metadata>
Created by potrace 1.14, written by Peter Selinger 2001-2017
</metadata>
<g transform="translate(0.000000,700.000000) scale(0.100000,-0.100000)"
fill="#000000" stroke="none">
<path d="M3100 6809 c-252 -37 -438 -94 -665 -205 -27 -14 -57 -29 -65 -34 -8
-5 -44 -26 -80 -46 -149 -85 -355 -258 -481 -405 -83 -97 -199 -251 -199 -265
0 -3 -13 -24 -29 -47 -45 -67 -170 -337 -171 -371 -1 -6 -9 -29 -20 -51 -11
-22 -19 -50 -20 -61 0 -12 -7 -41 -15 -65 -9 -23 -18 -59 -20 -78 -3 -20 -10
-61 -15 -91 -24 -135 -34 -445 -18 -580 18 -149 80 -402 123 -495 7 -16 26
-61 41 -100 15 -38 30 -74 34 -80 5 -5 79 -152 166 -325 87 -173 160 -317 163
-320 3 -3 35 -63 70 -135 34 -71 67 -137 72 -145 5 -8 42 -80 83 -160 183
-360 306 -602 350 -690 26 -52 53 -104 59 -115 6 -11 32 -60 57 -110 26 -49
57 -110 70 -135 13 -25 25 -47 25 -50 1 -3 20 -42 43 -87 23 -46 42 -85 42
-88 0 -3 16 -31 35 -64 19 -33 35 -64 35 -70 0 -6 5 -11 10 -11 6 0 10 -8 11
-17 0 -10 13 -40 29 -68 15 -27 85 -162 155 -300 293 -579 381 -749 392 -752
9 -3 52 79 212 397 15 30 33 63 51 96 30 53 58 109 57 114 0 3 11 25 25 50 14
25 85 162 158 305 170 331 184 359 185 365 0 3 4 11 9 18 9 15 162 315 269
527 39 77 80 156 92 175 12 19 22 37 22 40 0 10 443 878 502 983 11 20 18 37
15 37 -4 0 -2 6 4 13 15 18 171 330 171 341 -1 5 3 12 8 15 13 9 138 267 156
321 8 25 27 77 42 115 23 63 53 177 59 230 2 11 6 31 9 45 29 114 40 393 23
574 -4 44 -9 82 -11 86 -2 3 -7 28 -10 56 -4 27 -8 58 -10 69 -5 34 -53 208
-66 240 -7 17 -13 32 -14 35 -28 112 -166 379 -269 520 -100 136 -331 379
-394 414 -9 5 -44 31 -77 56 -172 135 -423 252 -700 330 -79 22 -100 27 -165
35 -19 2 -64 9 -100 15 -74 11 -438 11 -520 -1z m461 -1493 c362 -126 527
-534 354 -878 -40 -80 -42 -83 -122 -164 -199 -202 -526 -234 -758 -74 -142
98 -245 262 -271 430 -50 331 181 656 501 707 17 3 31 6 33 8 2 2 46 1 98 -1
66 -2 114 -10 165 -28z"/>
</g>
</svg>
